<svg width="13.675mm" height="18.081mm" version="1.1" viewBox="0 0 13.675 18.081" xmlns="http://www.w3.org/2000/svg">
 <g transform="matrix(8.7909 0 0 8.7909 -.37722 -.3783)">
  <g transform="matrix(.61333 0 0 .61333 -12.274 -4.0479)">
   <g transform="matrix(.59702 0 0 .52211 .82833 -12.547)" fill-rule="evenodd">
    <rect transform="scale(1,-1)" x="32.678" y="-39.745" width="3.4085" height="1.6428" fill="#333" stop-color="#000000"/>
    <g transform="matrix(1 0 0 .94356 5.2917 2.2322)">
     <rect transform="scale(1,-1)" x="30.277" y="-39.757" width=".40147" height="1.7397" fill="#00a261" stop-color="#000000"/>
     <rect transform="scale(1,-1)" x="27.483" y="-39.757" width="3.196" height="1.7397" fill="#00a261" stop-color="#000000"/>
     <rect transform="scale(1,-1)" x="28.202" y="-39.757" width=".51466" height="1.7397" fill="#f8ffff" stop-color="#000000"/>
    </g>
   </g>
   <g transform="matrix(.59702 0 0 .59702 .82833 -15.401)">
    <rect x="32.405" y="37.124" width="3.9377" height=".99004" fill="#333" fill-rule="evenodd" stop-color="#000000"/>
    <rect x="32.516" y="37.221" width="3.71" height=".79611" fill="#00a261" fill-rule="evenodd" stop-color="#000000"/>
    <g transform="matrix(1 0 0 .45762 5.0185 19.824)">
     <rect transform="scale(1,-1)" x="28.202" y="-39.757" width=".51466" height="1.7397" fill="#f8ffff" fill-rule="evenodd" stop-color="#000000"/>
    </g>
   </g>
  </g>
  <g transform="matrix(.37649 0 0 .37649 -9.5148 -10.49)" fill-rule="evenodd">
   <g transform="translate(.25379 -.18232)" stroke="#333">
    <rect x="25.455" y="29.684" width="3.4628" height="3.7432" rx="0" ry="0" fill="#ffd700" stop-color="#000000" stroke-linejoin="bevel" stroke-width=".087846"/>
    <g fill="#be9b00" stroke-width=".070277">
     <circle cx="25.812" cy="30.036" r=".15721" stop-color="#000000"/>
     <circle cx="28.51" cy="30.044" r=".15721" stop-color="#000000"/>
     <circle cx="25.824" cy="33.061" r=".15721" stop-color="#000000"/>
     <circle cx="28.506" cy="33.05" r=".15721" stop-color="#000000"/>
    </g>
   </g>
   <path d="m26.51 30.134v2.4425h0.61044v-0.61062h1.2209v-1.8319zm0.61044 0.61062h0.61044v0.61062h-0.61044z" fill="#fff" stop-color="#000000" stroke="#000" stroke-linecap="round" stroke-linejoin="round" stroke-width=".092604" style="font-variation-settings:normal"/>
  </g>
 </g>
</svg>
